<svg width="230" height="253" viewBox="0 0 230 253" fill="none" xmlns="http://www.w3.org/2000/svg">
<g filter="url(#filter0_d_492_347)">
<path fill-rule="evenodd" clip-rule="evenodd" d="M21.3569 26.7264V85.7628C21.3569 152.59 55.5962 207.785 112.944 233.407L115.147 234.39L117.349 233.407C174.514 207.868 208.643 152.675 208.643 85.7628V26.6925L113.466 4.39038L21.3569 26.7264Z" fill="#DE554B"/>
<path fill-rule="evenodd" clip-rule="evenodd" d="M21.3569 26.7264V85.7628C21.3569 152.59 55.5962 207.785 112.944 233.407L115.147 234.39L117.349 233.407C174.514 207.868 208.643 152.675 208.643 85.7628V26.6925L113.466 4.39038L21.3569 26.7264Z" fill="url(#paint0_linear_492_347)" fill-opacity="0.15"/>
<path fill-rule="evenodd" clip-rule="evenodd" d="M176.245 140.488L175.988 140.382C159.453 133.533 146.312 139.584 137.962 146.211C142.051 135.777 143.058 126.388 143.238 124.289C144.508 121.733 146.249 120.18 148.551 119.542C154.709 117.833 162.726 123.157 162.804 123.21L164.961 124.659L177.657 93.3014L137.98 54.7293L106.488 58.315C105.799 58.4225 105.118 58.5509 104.436 58.6821C98.3443 50.8043 90.6377 44.328 81.7273 40.5873L114.908 32.7138L184.468 49.2146L185.142 91.4408C185.142 108.997 182.061 125.524 176.245 140.488V140.488ZM115.121 95.9045C116.262 108.03 114.9 137.303 77.9532 147.975L58.9761 114.486C60.4673 99.2906 67.5292 85.8242 78.0919 76.3023L78.4521 76.7824C87.5419 88.9075 87.5588 101.758 78.4984 112.969L77.1796 114.601L80.4562 117.226L81.775 115.595C92.1527 102.752 92.1695 88.0784 81.8212 74.277L81.3125 73.5987C87.5644 68.747 94.8407 65.1933 102.786 63.309C109.444 72.5295 113.99 83.8897 115.121 95.9045V95.9045ZM147.863 70.5629C143.408 74.1891 137.864 78.703 139.076 98.555C139.846 111.216 139.239 121.259 139.104 123.202L139.097 123.217L139.076 123.616C139.068 123.747 138.249 136.82 131.971 149.693C123.87 166.306 110.842 174.796 93.2374 174.944L80.0708 151.712C107.204 143.483 121.854 122.575 119.307 95.5136C118.256 84.3503 113.952 72.5253 107.162 62.4507L136.472 59.1148L148.093 70.4121C148.015 70.4596 147.936 70.5028 147.863 70.5629V70.5629ZM156.449 92.8868C160.472 92.9622 163.789 89.8189 163.96 85.8382L172.705 94.3384L162.948 118.434C159.642 116.662 153.21 113.906 147.439 115.505C146.018 115.897 144.734 116.526 143.583 117.371C143.715 112.765 143.746 106.066 143.272 98.301C142.192 80.5887 146.428 77.1397 150.523 73.8052C150.724 73.6419 150.878 73.4479 151.001 73.2386L163.777 85.6581L149.195 85.3845C149.119 89.4518 152.366 92.81 156.449 92.8868V92.8868ZM114.928 205.491C71.3636 185.351 45.4185 142.86 45.4185 91.4408V49.2034L73.9394 42.4353C83.7033 44.8779 92.8086 51.1296 99.9868 59.7135C75.2932 66.4118 57.0561 88.1845 54.7283 114.764L54.6709 115.41L90.7723 179.112L91.9803 179.129C92.2452 179.131 92.5003 179.133 92.7623 179.133C110.896 179.133 122.554 170.906 130.037 160.801L130.248 160.935L131.382 159.176C131.426 159.11 135.707 152.549 143.189 147.48C153.004 140.83 163.498 139.746 174.373 144.247L174.658 144.364C163.138 171.255 142.538 192.737 114.928 205.491V205.491ZM114.908 24.1047L37.0098 42.5888V91.4408C37.0098 146.934 65.4985 192.719 113.215 213.915L114.928 214.676L116.64 213.915C164.798 192.522 193.551 146.738 193.551 91.3738L192.773 42.5777L114.908 24.1047Z" fill="#FEB447"/>
</g>
<defs>
<filter id="filter0_d_492_347" x="-5" y="0.390381" width="252" height="252" filterUnits="userSpaceOnUse" color-interpolation-filters="sRGB">
<feFlood flood-opacity="0" result="BackgroundImageFix"/>
<feColorMatrix in="SourceAlpha" type="matrix" values="0 0 0 0 0 0 0 0 0 0 0 0 0 0 0 0 0 0 127 0" result="hardAlpha"/>
<feOffset dx="6" dy="7"/>
<feGaussianBlur stdDeviation="5.5"/>
<feComposite in2="hardAlpha" operator="out"/>
<feColorMatrix type="matrix" values="0 0 0 0 0 0 0 0 0 0 0 0 0 0 0 0 0 0 0.15 0"/>
<feBlend mode="normal" in2="BackgroundImageFix" result="effect1_dropShadow_492_347"/>
<feBlend mode="normal" in="SourceGraphic" in2="effect1_dropShadow_492_347" result="shape"/>
</filter>
<linearGradient id="paint0_linear_492_347" x1="115" y1="4.39038" x2="115" y2="234.39" gradientUnits="userSpaceOnUse">
<stop stop-opacity="0"/>
<stop offset="1"/>
</linearGradient>
</defs>
</svg>
