<svg width="230" height="253" viewBox="0 0 230 253" fill="none" xmlns="http://www.w3.org/2000/svg">
<g filter="url(#filter0_d_553_364)">
<path fill-rule="evenodd" clip-rule="evenodd" d="M206.763 26.9689L199.95 29.4588C199.286 29.6995 183.487 35.2194 162.11 20.5148C131.793 -0.338734 99.5547 -0.984901 71.341 18.6919C51.4128 32.593 31.1884 29.2466 31.0036 29.2144L25.0738 28.1305L24.9267 34.1867C24.8324 38.0731 22.737 129.664 31.5392 154.758C43.7082 189.452 64.3625 200.721 84.3379 211.619C94.5246 217.175 104.147 222.426 112.408 230.727L116.056 234.39L119.702 230.727C127.929 222.462 137.342 217.234 147.308 211.697C166.925 200.801 187.21 189.532 199.403 154.758C208.2 129.689 206.966 38.1205 206.912 34.234L206.763 26.9689Z" fill="#FCB542"/>
<path fill-rule="evenodd" clip-rule="evenodd" d="M206.763 26.9689L199.95 29.4588C199.286 29.6995 183.487 35.2194 162.11 20.5148C131.793 -0.338734 99.5547 -0.984901 71.341 18.6919C51.4128 32.593 31.1884 29.2466 31.0036 29.2144L25.0738 28.1305L24.9267 34.1867C24.8324 38.0731 22.737 129.664 31.5392 154.758C43.7082 189.452 64.3625 200.721 84.3379 211.619C94.5246 217.175 104.147 222.426 112.408 230.727L116.056 234.39L119.702 230.727C127.929 222.462 137.342 217.234 147.308 211.697C166.925 200.801 187.21 189.532 199.403 154.758C208.2 129.689 206.966 38.1205 206.912 34.234L206.763 26.9689Z" fill="url(#paint0_linear_553_364)" fill-opacity="0.15"/>
<path fill-rule="evenodd" clip-rule="evenodd" d="M177.884 137.454C176.627 133.738 174.733 129.867 172.045 126.075C167.572 119.756 158.234 110.155 141.155 106.053C149.505 103.888 155.999 98.7972 156.775 85.3241L156.952 82.2662L154.096 83.2063C153.986 83.2385 142.534 86.3061 116.415 69.5041C110.012 65.3539 99.9021 62.1494 90.0046 64.96C90.1058 64.404 90.1647 63.8327 90.1647 63.246C90.1647 58.0411 86.0171 53.8071 80.9198 53.8071C75.8212 53.8071 71.6749 58.0411 71.6749 63.246C71.6749 67.4018 74.3214 70.9303 77.9819 72.1862C73.6714 76.5417 70.2504 82.5233 67.8872 89.9716C67.2865 91.8672 66.8185 93.7362 66.4819 95.5773L66.1781 96.3387C56.6021 120.371 62.9323 133.696 67.5547 143.424C71.6229 151.986 74.1421 157.337 65.862 166.273C61.8964 160.955 58.3646 154.386 55.4362 145.905C49.7533 129.443 49.6315 71.5045 49.7328 53.9021C56.4132 54.7374 68.5454 54.2275 82.7589 44.2941C93.353 36.8906 104.734 32.8102 115.68 32.4889C126.627 32.8102 138.008 36.8906 148.602 44.2941C162.817 54.2289 174.946 54.7388 181.628 53.9021C181.716 69.1954 181.634 114.917 177.884 137.454ZM137.191 188.562C133.878 190.433 130.524 192.337 127.204 194.431C132.484 180.09 130.475 164.044 125.379 154.921C121.437 147.861 114.081 142.094 103.528 137.771C102.198 135.363 97.3378 125.724 100.158 118.285C101.637 114.384 105.14 111.61 110.569 110.041C114.028 109.041 117.771 108.556 121.543 108.235V108.27H123.596C150.374 108.27 163.361 120.962 168.719 128.529C173.177 134.823 175.238 141.355 175.656 146.651C166.722 171.876 152.375 179.988 137.191 188.562ZM109.451 106.008C102.714 107.955 98.2997 111.577 96.3293 116.773C93.8087 123.422 95.9967 131.018 98.0069 135.803C86.2114 131.242 77.4687 124.214 73.1241 115.714C71.0523 111.656 70.0342 107.296 69.9932 102.692C70.8279 94.3229 74.2256 88.5327 80.1193 85.5029C88.0984 81.396 98.1355 83.5095 102.709 86.3242C128.291 102.059 150.798 91.2888 151.742 90.8223L151.823 90.7832C148.824 102.218 138.803 102.878 126.526 103.672C120.828 104.041 114.937 104.423 109.451 106.008ZM89.4517 69.5348C92.2268 68.5137 95.0526 68.0807 97.8112 68.0807C104.102 68.0807 110.043 70.3381 114.221 73.048C131.218 83.9816 142.487 86.9333 148.873 87.5144C145.657 88.7968 135.583 92.1228 122.787 89.7481C123.348 85.338 120.408 81.2283 116.077 80.4782C112.673 79.8873 109.411 81.5468 107.731 84.3937C106.767 83.8755 105.801 83.3335 104.828 82.7342C98.5461 78.8704 87.1036 77.2178 78.2706 81.7606C77.0897 82.3682 75.8417 83.1575 74.6074 84.159C78.2186 76.754 83.1886 71.8397 89.4517 69.5348ZM80.9198 68.4927C78.0845 68.4927 75.7801 66.139 75.7801 63.246C75.7801 60.353 78.0845 57.9978 80.9198 57.9978C83.7537 57.9978 86.0595 60.353 86.0595 63.246C86.0595 66.139 83.7537 68.4927 80.9198 68.4927ZM94.1782 188.561C84.9648 183.36 76.0593 178.327 68.4825 169.545C79.1587 158.255 75.4832 150.511 71.248 141.596C67.5451 133.798 63.1033 124.437 66.4928 109.059C67.084 112.026 68.0761 114.895 69.4841 117.651C74.8865 128.224 86.2168 136.658 101.394 141.407C111.395 145.401 118.267 150.646 121.813 156.996C127.044 166.363 128.573 184.733 120.503 199.039C118.872 200.275 117.26 201.582 115.688 203.002C108.882 196.86 101.422 192.65 94.1782 188.561ZM189.676 42.7953L184.25 44.8152C183.707 45.0164 170.756 49.6192 153.238 37.3767C141.307 29.0385 128.359 24.4497 115.797 24.1075L115.673 24.1047L115.563 24.1075C103.002 24.4497 90.0538 29.0385 78.1228 37.3767C60.6074 49.6178 47.6514 45.0177 47.1424 44.8264L41.6524 42.6765L41.5662 48.6776C41.521 51.9031 40.5139 127.896 47.6925 148.69C57.6448 177.517 74.1982 186.86 90.2057 195.896C98.3545 200.496 106.053 204.841 112.786 211.713L115.688 214.676L118.59 211.713C125.323 204.841 133.017 200.498 141.165 195.898C157.168 186.861 173.716 177.518 183.668 148.69C190.847 127.896 189.84 51.9031 189.795 48.6776L189.676 42.7953Z" fill="#212028"/>
</g>
<defs>
<filter id="filter0_d_553_364" x="-5" y="0.390381" width="252" height="252" filterUnits="userSpaceOnUse" color-interpolation-filters="sRGB">
<feFlood flood-opacity="0" result="BackgroundImageFix"/>
<feColorMatrix in="SourceAlpha" type="matrix" values="0 0 0 0 0 0 0 0 0 0 0 0 0 0 0 0 0 0 127 0" result="hardAlpha"/>
<feOffset dx="6" dy="7"/>
<feGaussianBlur stdDeviation="5.5"/>
<feComposite in2="hardAlpha" operator="out"/>
<feColorMatrix type="matrix" values="0 0 0 0 0 0 0 0 0 0 0 0 0 0 0 0 0 0 0.15 0"/>
<feBlend mode="normal" in2="BackgroundImageFix" result="effect1_dropShadow_553_364"/>
<feBlend mode="normal" in="SourceGraphic" in2="effect1_dropShadow_553_364" result="shape"/>
</filter>
<linearGradient id="paint0_linear_553_364" x1="115.822" y1="4.39038" x2="115.822" y2="234.39" gradientUnits="userSpaceOnUse">
<stop stop-opacity="0"/>
<stop offset="1"/>
</linearGradient>
</defs>
</svg>
