<svg width="230" height="235" viewBox="0 0 230 235" fill="none" xmlns="http://www.w3.org/2000/svg">
<g filter="url(#filter0_d_553_382)">
<path fill-rule="evenodd" clip-rule="evenodd" d="M206.17 25.6326L200.387 26.3428C199.929 26.4019 154.515 31.6513 117.751 6.65061L114.309 4.31079L111.163 6.98579C81.289 32.4206 29.6781 26.4066 29.1597 26.3444L23.4257 25.631L23.2857 30.9746C23.1907 34.5657 21.0823 119.221 29.9321 142.415C42.1691 174.481 62.9362 184.897 83.0206 194.97C93.2633 200.104 102.939 204.956 111.246 212.63L114.912 216.015L118.577 212.63C126.851 204.991 136.315 200.158 146.336 195.042C166.058 184.969 186.453 174.554 198.714 142.415C207.557 119.241 206.318 34.6104 206.263 31.0193L206.17 25.6326Z" fill="#265CAA"/>
<path fill-rule="evenodd" clip-rule="evenodd" d="M206.17 25.6326L200.387 26.3428C199.929 26.4019 154.515 31.6513 117.751 6.65061L114.309 4.31079L111.163 6.98579C81.289 32.4206 29.6781 26.4066 29.1597 26.3444L23.4257 25.631L23.2857 30.9746C23.1907 34.5657 21.0823 119.221 29.9321 142.415C42.1691 174.481 62.9362 184.897 83.0206 194.97C93.2633 200.104 102.939 204.956 111.246 212.63L114.912 216.015L118.577 212.63C126.851 204.991 136.315 200.158 146.336 195.042C166.058 184.969 186.453 174.554 198.714 142.415C207.557 119.241 206.318 34.6104 206.263 31.0193L206.17 25.6326Z" fill="url(#paint0_linear_553_382)" fill-opacity="0.15"/>
<path fill-rule="evenodd" clip-rule="evenodd" d="M145.143 169.992C163.742 150.765 166.655 132.595 164.145 116.832C166.898 119.71 169.856 121.23 172.996 121.358C173.134 121.364 173.272 121.366 173.409 121.366C175.974 121.366 178.489 120.384 180.825 118.528C180.076 125.261 179.076 130.889 177.738 134.425C170.142 154.518 158.237 163.007 145.143 169.992ZM115.68 187.13C108.701 181.403 100.943 177.49 93.4101 173.691C82.466 168.169 71.9426 162.858 63.5211 152.29C73.0266 157.022 82.7405 158.829 91.8116 158.828C105.953 158.828 118.524 154.47 126.273 150.097C146.062 138.93 155.143 118.829 155.176 100.123C155.847 101.861 156.493 103.639 157.095 105.452L157.058 105.468L157.199 105.765C163.771 125.768 164.706 150.21 131.496 177.002C126.071 179.867 120.676 183.031 115.68 187.13ZM109.033 61.2722L113.661 70.5598C113.3 70.4338 112.945 70.3194 112.612 70.2153C112.19 70.0855 111.772 69.9595 111.374 69.7975C105.758 67.5068 97.6553 68.0068 92.6226 68.647L96.4513 62.7312C98.5353 62.2633 104.321 61.0935 109.033 61.2722ZM124.129 146.798C110.997 154.21 83.066 161.566 58.4331 144.744C56.6871 141.681 55.0747 138.268 53.6224 134.425C50.2489 125.505 48.9993 103.365 48.5924 83.3298L63.5721 70.9583C61.2923 84.0227 62.1777 95.569 66.2188 105.346C71.2626 117.543 79.7834 123.584 86.0451 126.504C99.4869 132.775 115.123 130.411 124.065 120.758C136.807 106.997 128.611 91.0826 125.11 84.2875C124.67 83.4352 124.306 82.7308 124.076 82.1973C123.321 80.4542 122.467 78.8782 121.539 77.4642L121.641 77.4192L114.716 63.5231L117.898 66.4128L124.631 59.9738L113.017 60.1127L112.697 59.4686L116.363 52.8445L136.155 57.8232C140.066 65.6942 145.225 76.5283 147.002 80.2781L147.318 81.1368C147.758 82.3323 148.252 83.5664 148.769 84.8223C155.279 105.407 148.209 133.208 124.129 146.798ZM48.5579 48.9778C53.2969 49.2734 61.2854 49.483 70.6447 48.5561C88.9401 46.7462 104.416 41.3189 115.68 32.7974C126.944 41.3189 142.421 46.7462 160.715 48.5561C170.075 49.483 178.066 49.2747 182.804 48.9778C182.986 59.8054 183.274 89.7123 181.45 111.995C178.866 115.628 175.93 117.618 173.176 117.506C169.317 117.349 165.233 113.144 161.679 105.669L161.014 104.268C159.185 98.7261 156.974 93.5996 154.977 88.9706C154.169 87.0976 153.394 85.2928 152.678 83.5522C152.321 82.439 151.94 81.3386 151.51 80.2678C151.486 80.2061 151.25 79.7022 150.859 78.8718L150.558 78.0581L150.484 78.0825C148.292 73.456 143.07 62.5332 139.502 55.3834L139.095 54.5696L114.216 48.3106L109.177 57.4144C102.736 57.1843 94.9341 59.1036 94.5838 59.1923L93.7797 59.3928L84.2383 74.1399L88.9677 73.1475C89.0987 73.1218 102.462 70.3734 109.717 73.3313C110.232 73.5409 110.766 73.7093 111.308 73.8751C112.03 74.0988 112.711 74.3096 113.271 74.6387C115.967 76.2262 118.377 79.3384 120.236 83.6384C120.492 84.2297 120.894 85.0125 121.381 85.9561C124.796 92.5892 131.904 106.389 120.931 118.237C113.231 126.554 99.6456 128.537 87.8974 123.055C66.2974 112.982 63.8521 87.068 68.7649 66.175L70.1248 60.3942L48.5069 78.247C48.3345 65.7868 48.46 54.7072 48.5579 48.9778ZM190.882 40.3676L186.31 40.9371C185.881 40.9885 143.127 46.0353 118.484 24.8659L115.68 22.4569L112.875 24.8659C88.2932 45.9839 45.474 40.9898 45.052 40.9371L40.4785 40.3676L40.3668 44.6675C40.2909 47.6434 38.5572 117.786 45.8174 136.989C55.8471 163.515 72.9411 172.136 89.4724 180.474C97.927 184.738 105.914 188.765 112.755 195.141L115.68 197.869L118.606 195.141C125.448 188.765 133.434 184.739 141.888 180.474C158.42 172.136 175.514 163.515 185.542 136.989C192.805 117.786 191.071 47.6434 190.994 44.6675L190.882 40.3676Z" fill="#F1BA8C"/>
</g>
<defs>
<filter id="filter0_d_553_382" x="-5" y="0.310791" width="252" height="233.705" filterUnits="userSpaceOnUse" color-interpolation-filters="sRGB">
<feFlood flood-opacity="0" result="BackgroundImageFix"/>
<feColorMatrix in="SourceAlpha" type="matrix" values="0 0 0 0 0 0 0 0 0 0 0 0 0 0 0 0 0 0 127 0" result="hardAlpha"/>
<feOffset dx="6" dy="7"/>
<feGaussianBlur stdDeviation="5.5"/>
<feComposite in2="hardAlpha" operator="out"/>
<feColorMatrix type="matrix" values="0 0 0 0 0 0 0 0 0 0 0 0 0 0 0 0 0 0 0.15 0"/>
<feBlend mode="normal" in2="BackgroundImageFix" result="effect1_dropShadow_553_382"/>
<feBlend mode="normal" in="SourceGraphic" in2="effect1_dropShadow_553_382" result="shape"/>
</filter>
<linearGradient id="paint0_linear_553_382" x1="114.676" y1="4.31079" x2="114.676" y2="216.015" gradientUnits="userSpaceOnUse">
<stop stop-opacity="0"/>
<stop offset="1"/>
</linearGradient>
</defs>
</svg>
