<svg width="230" height="253" viewBox="0 0 230 253" fill="none" xmlns="http://www.w3.org/2000/svg">
<g filter="url(#filter0_d_553_399)">
<path fill-rule="evenodd" clip-rule="evenodd" d="M198.391 35.7111C197.804 35.6923 153.051 35.6526 118.057 7.14887L114.672 4.39038L111.462 7.35265C80.048 36.3772 32.1197 35.7111 31.6313 35.713L26.2856 35.5904L30.0825 125.905C32.114 170.385 107.118 229.515 110.311 232.011L113.353 234.39L116.439 232.066C119.708 229.604 196.531 171.258 198.923 124.968L203.714 35.6753L198.391 35.7111Z" fill="#086C5C"/>
<path fill-rule="evenodd" clip-rule="evenodd" d="M198.391 35.7111C197.804 35.6923 153.051 35.6526 118.057 7.14887L114.672 4.39038L111.462 7.35265C80.048 36.3772 32.1197 35.7111 31.6313 35.713L26.2856 35.5904L30.0825 125.905C32.114 170.385 107.118 229.515 110.311 232.011L113.353 234.39L116.439 232.066C119.708 229.604 196.531 171.258 198.923 124.968L203.714 35.6753L198.391 35.7111Z" fill="url(#paint0_linear_553_399)" fill-opacity="0.15"/>
<path fill-rule="evenodd" clip-rule="evenodd" d="M174.752 131.244C175.511 128.538 175.974 125.955 176.101 123.52L179.573 59.129C168.76 58.4491 140.263 54.8803 115.597 36.3124C92.6659 55.5479 62.646 58.7142 51.4134 59.2073L54.1666 124.355C54.378 128.962 55.8965 134.168 58.6149 139.864C61.1123 135.236 65.256 131.62 68.3527 129.704L118.326 93.6891C120.099 92.4006 121.024 90.9981 121.146 89.4115C121.285 87.601 120.371 85.8359 119.564 84.6586L104.384 96.4433L92.7535 91.836L92.7966 91.9391L90.8665 92.7207C85.05 95.0793 81.7851 96.7812 82.3357 104.328L82.4873 106.383L78.3269 106.681L78.1753 104.626C78.0015 102.247 78.1975 100.277 78.6383 98.6014L71.3326 98.5066L71.3868 94.3856L80.5809 94.5051C82.3705 92.1437 84.8957 90.7769 87.3708 89.7041L80.5712 87.009L80.6004 85.5845C80.688 81.4923 80.9271 71.8217 81.2831 70.3917L81.5125 69.4755L117.932 51.17L118.937 51.8033C119.357 52.0684 129.389 58.4243 142.462 69.573L142.597 69.6994C148.893 76.1295 151.754 84.2726 150.656 92.6287C149.698 99.9228 145.722 106.312 140.023 109.714C139.162 110.228 138.031 111.077 136.94 111.898C136.165 112.48 135.412 113.044 134.76 113.491C115.821 126.436 93.9285 142.98 87.9645 147.516C95.2091 157.176 102.206 153.933 110.51 148.68L145.01 124.974C151.946 120.834 159.66 120.392 166.285 123.686C169.817 125.441 172.76 128.127 174.752 131.244ZM115.512 202.835C120.567 198.769 132.404 188.913 144.236 176.626C158.455 161.859 168.103 148.369 172.811 136.837C171.603 132.973 168.523 129.411 164.411 127.367C161.288 125.812 154.905 123.886 147.277 128.429L112.826 152.108L112.822 152.111C109.189 154.407 103.885 157.76 98.1125 157.76C93.2972 157.761 88.1536 155.429 83.3744 148.211L82.3218 146.619L83.8403 145.454L83.8697 145.432C84.8898 144.652 110.578 125.007 132.386 110.102C132.984 109.692 133.674 109.173 134.386 108.639L134.415 108.617L134.444 108.595C135.614 107.717 136.822 106.811 137.863 106.188C142.487 103.427 145.722 98.159 146.521 92.0984C147.448 85.0391 145.013 78.1296 139.663 72.6308C129.168 63.6869 120.519 57.7925 117.68 55.9201L85.2461 72.2215C85.0945 74.2737 84.9193 79.3398 84.8039 84.2452L103.7 91.7317L120.067 79.0266L121.377 80.3247C121.552 80.4992 125.696 84.6683 125.307 89.7234C125.087 92.5407 123.57 94.9927 120.793 97.0134L70.622 133.163C70.209 133.418 63.0145 137.957 61.0733 144.596C66.463 154.107 74.9298 164.837 86.2876 176.454C86.8577 177.038 87.4264 177.611 87.9979 178.182C93.6573 181.09 99.8535 181.205 107.067 178.645C115.721 175.576 140.586 156.776 140.836 156.587L142.491 155.332L145.03 158.603L143.375 159.857C142.332 160.647 117.735 179.24 108.476 182.524C104.645 183.883 100.995 184.565 97.5188 184.565C96.4425 184.565 95.3829 184.497 94.3387 184.366C103.402 192.952 111.542 199.662 115.512 202.835ZM183.92 51.045H183.938L188.365 51.0175L184.433 123.948C182.47 161.728 120.699 209.357 118.071 211.367L115.522 213.315L112.969 211.37C110.296 209.334 47.5005 161.061 45.8305 124.713L42.7144 50.9461L47.1626 51.0464C47.1711 51.0461 47.1991 51.0461 47.2462 51.0461C49.2972 51.0468 87.4273 51.0591 112.599 27.9193L115.269 25.4659L118.086 27.7504C146.539 50.8101 182.923 51.045 183.92 51.045ZM104.259 69.9922L100.41 80.8696L86.5203 77.608L104.259 69.9922Z" fill="#D3E9F5"/>
</g>
<defs>
<filter id="filter0_d_553_399" x="-5" y="0.390381" width="252" height="252" filterUnits="userSpaceOnUse" color-interpolation-filters="sRGB">
<feFlood flood-opacity="0" result="BackgroundImageFix"/>
<feColorMatrix in="SourceAlpha" type="matrix" values="0 0 0 0 0 0 0 0 0 0 0 0 0 0 0 0 0 0 127 0" result="hardAlpha"/>
<feOffset dx="6" dy="7"/>
<feGaussianBlur stdDeviation="5.5"/>
<feComposite in2="hardAlpha" operator="out"/>
<feColorMatrix type="matrix" values="0 0 0 0 0 0 0 0 0 0 0 0 0 0 0 0 0 0 0.15 0"/>
<feBlend mode="normal" in2="BackgroundImageFix" result="effect1_dropShadow_553_399"/>
<feBlend mode="normal" in="SourceGraphic" in2="effect1_dropShadow_553_399" result="shape"/>
</filter>
<linearGradient id="paint0_linear_553_399" x1="115" y1="4.39038" x2="115" y2="234.39" gradientUnits="userSpaceOnUse">
<stop stop-opacity="0"/>
<stop offset="1"/>
</linearGradient>
</defs>
</svg>
